<svg width="3420" height="1700" viewBox="0 0 3420 1700" fill="none" xmlns="http://www.w3.org/2000/svg">
<path d="M3410 1140C3410 1173.14 3383.14 1200 3350 1200C3316.86 1200 3290 1173.14 3290 1140C3290 1106.86 3316.86 1080 3350 1080C3366.58 1080 3381.59 1086.73 3392.45 1097.6C3403.3 1108.46 3410 1123.44 3410 1140Z" fill="#BB6BD9"/>
<path d="M1258.55 790.09C1263.08 791.383 1270.84 794.293 1281.83 798.82C1292.82 803.347 1305.43 809.49 1319.66 817.25C1333.89 824.363 1348.76 833.417 1364.28 844.41C1379.8 854.757 1394.35 866.72 1407.93 880.3C1421.51 893.88 1433.15 909.077 1442.85 925.89C1452.55 942.057 1458.69 959.84 1461.28 979.24V988.94C1461.28 1015.45 1456.11 1041.32 1445.76 1066.54C1435.41 1091.11 1420.86 1112.78 1402.11 1131.53C1381.42 1152.22 1357.17 1168.07 1329.36 1179.06C1301.55 1190.05 1272.13 1195.55 1241.09 1195.55H1233.33C1193.88 1194.26 1157.99 1183.26 1125.66 1162.57C1093.33 1141.23 1069.08 1112.78 1052.91 1077.21C1050.97 1073.33 1050 1067.83 1050 1060.72C1050 1053.61 1052.26 1046.49 1056.79 1039.38C1061.32 1032.27 1068.11 1026.77 1077.16 1022.89C1078.45 1021.6 1082.33 1020.95 1088.8 1020.95C1096.56 1020.95 1103.67 1022.89 1110.14 1026.77C1117.25 1030.65 1122.43 1036.15 1125.66 1043.26C1136.01 1065.89 1150.88 1083.68 1170.28 1096.61C1190.33 1108.9 1212.64 1115.36 1237.21 1116.01H1242.06C1284.74 1116.01 1318.69 1102.75 1343.91 1076.24C1369.78 1051.67 1382.71 1022.57 1382.71 988.94V985.06C1381.42 970.187 1374.95 956.283 1363.31 943.35C1352.32 929.77 1339.06 917.807 1323.54 907.46C1308.67 896.467 1293.15 887.09 1276.98 879.33C1260.81 871.57 1247.23 866.073 1236.24 862.84L1237.21 863.81C1232.04 861.87 1228.48 860.9 1226.54 860.9C1134.07 827.273 1087.83 768.427 1087.83 684.36V676.6C1089.12 653.32 1094.94 631.657 1105.29 611.61C1115.64 591.563 1130.51 574.103 1149.91 559.23C1166.72 545.65 1186.12 535.303 1208.11 528.19C1230.1 521.077 1253.38 517.52 1277.95 517.52H1287.65C1306.4 518.167 1325.16 522.047 1343.91 529.16C1363.31 536.273 1381.09 545.65 1397.26 557.29C1400.49 561.817 1404.05 567.313 1407.93 573.78C1412.46 579.6 1414.72 584.773 1414.72 589.3C1414.72 599 1411.49 607.083 1405.02 613.55C1396.61 623.897 1385.94 629.07 1373.01 629.07C1369.78 629.07 1365.9 628.747 1361.37 628.1C1356.84 626.807 1352.96 624.543 1349.73 621.31C1340.68 614.843 1330.01 609.347 1317.72 604.82C1306.08 600.293 1294.76 597.707 1283.77 597.06H1276.01C1244.97 597.06 1219.1 604.82 1198.41 620.34C1177.72 635.86 1167.05 655.907 1166.4 680.48V684.36C1166.4 700.527 1168.99 714.107 1174.16 725.1C1179.33 736.093 1186.12 745.47 1194.53 753.23C1203.58 760.99 1213.28 767.78 1223.63 773.6C1234.62 778.773 1245.94 783.623 1257.58 788.15L1258.55 790.09Z" fill="#4F4F4F"/>
<path d="M1840.1 746.44C1851.09 746.44 1860.47 750.643 1868.23 759.05C1875.99 766.81 1879.87 776.51 1879.87 788.15C1879.87 799.143 1875.99 808.843 1868.23 817.25C1860.47 825.01 1851.09 828.89 1840.1 828.89H1756.68V1156.75C1756.68 1167.74 1752.8 1177.44 1745.04 1185.85C1737.28 1193.61 1727.9 1197.49 1716.91 1197.49C1705.91 1197.49 1696.21 1193.61 1687.81 1185.85C1680.05 1177.44 1676.17 1167.74 1676.17 1156.75V828.89H1594.69C1583.69 828.89 1573.99 825.01 1565.59 817.25C1557.83 808.843 1553.95 799.143 1553.95 788.15C1553.95 776.51 1557.83 766.81 1565.59 759.05C1573.99 750.643 1583.69 746.44 1594.69 746.44H1676.17V542.74C1676.17 531.747 1680.05 522.37 1687.81 514.61C1696.21 506.203 1705.91 502 1716.91 502C1727.9 502 1737.28 506.203 1745.04 514.61C1752.8 522.37 1756.68 531.747 1756.68 542.74V746.44H1840.1Z" fill="#4F4F4F"/>
<path d="M2327.44 1156.75C2327.44 1167.74 2323.56 1177.44 2315.8 1185.85C2308.04 1193.61 2298.66 1197.49 2287.67 1197.49C2279.26 1197.49 2270.85 1193.61 2262.45 1185.85C2254.04 1177.44 2246.93 1167.42 2241.11 1155.78C2216.53 1168.71 2191.96 1178.74 2167.39 1185.85C2142.81 1192.96 2118.24 1196.52 2093.67 1196.52C2053.57 1196.52 2020.59 1187.14 1994.73 1168.39C1969.51 1148.99 1952.37 1121.83 1943.32 1086.91C1940.73 1077.21 1939.44 1067.19 1939.44 1056.84C1939.44 1043.91 1941.05 1031.62 1944.29 1019.98C1948.17 1008.34 1954.31 997.67 1962.72 987.97C1973.06 974.39 1985.67 963.397 2000.55 954.99C2015.42 945.937 2031.26 939.147 2048.08 934.62C2065.54 929.447 2083.64 926.213 2102.4 924.92C2121.15 922.98 2139.9 922.01 2158.66 922.01C2167.71 922.01 2177.73 922.333 2188.73 922.98C2200.37 922.98 2211.36 923.303 2221.71 923.95C2223.65 923.95 2227.53 924.273 2233.35 924.92C2239.81 924.92 2244.02 924.92 2245.96 924.92C2242.72 906.167 2237.87 889.353 2231.41 874.48C2225.59 858.96 2218.47 848.613 2210.07 843.44C2192.61 833.74 2171.91 828.89 2147.99 828.89C2125.35 828.89 2103.37 833.417 2082.03 842.47C2061.33 850.877 2044.52 860.253 2031.59 870.6C2028.35 873.833 2024.47 876.097 2019.95 877.39C2015.42 878.037 2010.89 878.36 2006.37 878.36C2000.55 878.36 1994.73 877.067 1988.91 874.48C1983.73 871.893 1979.21 868.66 1975.33 864.78C1968.86 856.373 1965.63 847.32 1965.63 837.62C1965.63 824.687 1970.48 814.663 1980.18 807.55C1998.93 790.737 2020.27 777.48 2044.2 767.78C2068.12 758.08 2093.34 751.613 2119.86 748.38C2123.74 747.733 2127.94 747.41 2132.47 747.41C2137.64 747.41 2142.17 747.41 2146.05 747.41C2163.51 747.41 2181.61 749.997 2200.37 755.17C2219.12 759.697 2235.93 765.517 2250.81 772.63H2249.84C2267.3 783.623 2281.2 797.203 2291.55 813.37C2301.89 829.537 2309.65 845.38 2314.83 860.9C2320 876.42 2323.23 890.323 2324.53 902.61C2325.82 914.897 2326.47 922.333 2326.47 924.92V1089.82L2327.44 1156.75ZM2245.96 1006.4C2244.66 1006.4 2240.78 1006.4 2234.32 1006.4C2227.85 1005.75 2223 1005.43 2219.77 1005.43C2211.36 1004.78 2202.31 1004.46 2192.61 1004.46C2182.91 1003.81 2173.53 1003.49 2164.48 1003.49C2148.96 1003.49 2132.79 1004.46 2115.98 1006.4C2099.16 1007.69 2083.64 1010.28 2069.42 1014.16C2055.19 1018.04 2043.55 1023.54 2034.5 1030.65C2025.44 1037.76 2020.92 1046.82 2020.92 1057.81C2020.92 1068.16 2022.86 1076.89 2026.74 1084C2031.26 1091.11 2036.76 1096.93 2043.23 1101.46C2050.34 1105.99 2058.1 1109.54 2066.51 1112.13C2075.56 1114.07 2084.61 1115.04 2093.67 1115.04C2104.66 1115.04 2114.04 1114.39 2121.8 1113.1C2129.56 1111.81 2134.73 1110.84 2137.32 1110.19C2138.61 1109.54 2140.23 1109.22 2142.17 1109.22C2164.8 1104.05 2183.23 1095.96 2197.46 1084.97C2211.68 1073.33 2222.03 1062.34 2228.5 1051.99L2245.96 1006.4Z" fill="#4F4F4F"/>
<path d="M2624.53 1197.49C2595.43 1197.49 2568.27 1191.67 2543.05 1180.03C2517.83 1168.39 2495.52 1152.55 2476.12 1132.5C2457.37 1111.81 2442.49 1087.88 2431.5 1060.72C2420.51 1033.56 2415.01 1004.46 2415.01 973.42C2415.01 942.38 2420.51 913.28 2431.5 886.12C2442.49 858.313 2457.37 834.063 2476.12 813.37C2495.52 792.677 2517.83 776.51 2543.05 764.87C2568.27 752.583 2595.43 746.44 2624.53 746.44C2640.05 746.44 2654.92 748.38 2669.15 752.26C2683.38 756.14 2697.28 760.99 2710.86 766.81C2725.73 774.57 2733.17 786.857 2733.17 803.67C2733.17 806.903 2732.85 810.137 2732.2 813.37C2731.55 815.957 2730.58 818.867 2729.29 822.1C2726.06 829.213 2720.88 834.71 2713.77 838.59C2707.3 842.47 2700.19 844.41 2692.43 844.41C2689.84 844.41 2686.93 844.087 2683.7 843.44C2681.11 842.793 2678.2 841.823 2674.97 840.53C2667.86 837.297 2659.45 834.71 2649.75 832.77C2640.05 830.183 2631.64 828.89 2624.53 828.89C2607.07 828.89 2590.58 832.77 2575.06 840.53C2559.54 847.643 2545.96 857.667 2534.32 870.6C2522.68 883.533 2513.3 899.053 2506.19 917.16C2499.72 934.62 2496.49 953.373 2496.49 973.42C2496.49 993.467 2499.72 1012.22 2506.19 1029.68C2513.3 1046.49 2522.68 1061.37 2534.32 1074.3C2545.96 1087.23 2559.54 1097.58 2575.06 1105.34C2590.58 1112.45 2607.07 1116.01 2624.53 1116.01C2640.7 1116.01 2658.16 1111.81 2676.91 1103.4C2678.2 1102.11 2680.14 1101.46 2682.73 1101.46C2685.32 1100.81 2688.23 1100.49 2691.46 1100.49C2699.87 1100.49 2707.3 1102.75 2713.77 1107.28C2720.88 1111.16 2726.06 1116.66 2729.29 1123.77C2730.58 1126.36 2731.55 1128.94 2732.2 1131.53C2732.85 1134.12 2733.17 1137.35 2733.17 1141.23C2733.17 1148.34 2731.23 1155.46 2727.35 1162.57C2723.47 1169.68 2717.97 1174.86 2710.86 1178.09C2683.05 1191.02 2654.28 1197.49 2624.53 1197.49Z" fill="#4F4F4F"/>
<path d="M3169.55 1127.65C3176.66 1135.41 3180.22 1145.11 3180.22 1156.75C3180.22 1167.74 3176.66 1177.44 3169.55 1185.85C3160.5 1193.61 3150.8 1197.49 3140.45 1197.49C3128.81 1197.49 3119.11 1193.61 3111.35 1185.85L2904.74 979.24V1156.75C2904.74 1167.74 2900.54 1177.44 2892.13 1185.85C2884.37 1193.61 2874.67 1197.49 2863.03 1197.49C2852.04 1197.49 2842.34 1193.61 2833.93 1185.85C2826.17 1177.44 2822.29 1167.74 2822.29 1156.75V542.74C2822.29 531.747 2826.17 522.37 2833.93 514.61C2842.34 506.203 2852.04 502 2863.03 502C2874.67 502 2884.37 506.203 2892.13 514.61C2900.54 522.37 2904.74 531.747 2904.74 542.74V964.69L3111.35 759.05C3120.4 751.29 3130.1 747.41 3140.45 747.41C3145.62 747.41 3150.47 748.703 3155 751.29C3159.53 753.23 3164.38 755.817 3169.55 759.05C3172.78 762.93 3175.37 767.457 3177.31 772.63C3179.25 777.803 3180.22 782.977 3180.22 788.15C3180.22 799.143 3176.66 808.843 3169.55 817.25L3013.38 973.42L3169.55 1127.65Z" fill="#4F4F4F"/>
<path d="M940 850C940 883.137 913.137 910 880 910C846.863 910 820 883.137 820 850C820 816.863 846.863 790 880 790C896.582 790 911.593 796.727 922.453 807.6C933.295 818.456 940 833.445 940 850Z" fill="#BB6BD9"/>
<path d="M710 850C710 1043.3 553.3 1200 360 1200C166.7 1200 10 1043.3 10 850C10 656.7 166.7 500 360 500C553.3 500 710 656.7 710 850ZM99.8308 850C99.8308 993.687 216.313 1110.17 360 1110.17C503.687 1110.17 620.169 993.687 620.169 850C620.169 706.313 503.687 589.831 360 589.831C216.313 589.831 99.8308 706.313 99.8308 850Z" fill="#4F4F4F"/>
</svg>
