<svg width="3420" height="3400" viewBox="0 0 3420 3400" fill="none" xmlns="http://www.w3.org/2000/svg">
<path d="M3410 1990C3410 2023.14 3383.14 2050 3350 2050C3316.86 2050 3290 2023.14 3290 1990C3290 1956.86 3316.86 1930 3350 1930C3366.58 1930 3381.59 1936.73 3392.45 1947.6C3403.3 1958.46 3410 1973.44 3410 1990Z" fill="#BB6BD9"/>
<path d="M1258.55 1640.09C1263.08 1641.38 1270.84 1644.29 1281.83 1648.82C1292.82 1653.35 1305.43 1659.49 1319.66 1667.25C1333.89 1674.36 1348.76 1683.42 1364.28 1694.41C1379.8 1704.76 1394.35 1716.72 1407.93 1730.3C1421.51 1743.88 1433.15 1759.08 1442.85 1775.89C1452.55 1792.06 1458.69 1809.84 1461.28 1829.24V1838.94C1461.28 1865.45 1456.11 1891.32 1445.76 1916.54C1435.41 1941.11 1420.86 1962.78 1402.11 1981.53C1381.42 2002.22 1357.17 2018.07 1329.36 2029.06C1301.55 2040.05 1272.13 2045.55 1241.09 2045.55H1233.33C1193.88 2044.26 1157.99 2033.26 1125.66 2012.57C1093.33 1991.23 1069.08 1962.78 1052.91 1927.21C1050.97 1923.33 1050 1917.83 1050 1910.72C1050 1903.61 1052.26 1896.49 1056.79 1889.38C1061.32 1882.27 1068.11 1876.77 1077.16 1872.89C1078.45 1871.6 1082.33 1870.95 1088.8 1870.95C1096.56 1870.95 1103.67 1872.89 1110.14 1876.77C1117.25 1880.65 1122.43 1886.15 1125.66 1893.26C1136.01 1915.89 1150.88 1933.68 1170.28 1946.61C1190.33 1958.9 1212.64 1965.36 1237.21 1966.01H1242.06C1284.74 1966.01 1318.69 1952.75 1343.91 1926.24C1369.78 1901.67 1382.71 1872.57 1382.71 1838.94V1835.06C1381.42 1820.19 1374.95 1806.28 1363.31 1793.35C1352.32 1779.77 1339.06 1767.81 1323.54 1757.46C1308.67 1746.47 1293.15 1737.09 1276.98 1729.33C1260.81 1721.57 1247.23 1716.07 1236.24 1712.84L1237.21 1713.81C1232.04 1711.87 1228.48 1710.9 1226.54 1710.9C1134.07 1677.27 1087.83 1618.43 1087.83 1534.36V1526.6C1089.12 1503.32 1094.94 1481.66 1105.29 1461.61C1115.64 1441.56 1130.51 1424.1 1149.91 1409.23C1166.72 1395.65 1186.12 1385.3 1208.11 1378.19C1230.1 1371.08 1253.38 1367.52 1277.95 1367.52H1287.65C1306.4 1368.17 1325.16 1372.05 1343.91 1379.16C1363.31 1386.27 1381.09 1395.65 1397.26 1407.29C1400.49 1411.82 1404.05 1417.31 1407.93 1423.78C1412.46 1429.6 1414.72 1434.77 1414.72 1439.3C1414.72 1449 1411.49 1457.08 1405.02 1463.55C1396.61 1473.9 1385.94 1479.07 1373.01 1479.07C1369.78 1479.07 1365.9 1478.75 1361.37 1478.1C1356.84 1476.81 1352.96 1474.54 1349.73 1471.31C1340.68 1464.84 1330.01 1459.35 1317.72 1454.82C1306.08 1450.29 1294.76 1447.71 1283.77 1447.06H1276.01C1244.97 1447.06 1219.1 1454.82 1198.41 1470.34C1177.72 1485.86 1167.05 1505.91 1166.4 1530.48V1534.36C1166.4 1550.53 1168.99 1564.11 1174.16 1575.1C1179.33 1586.09 1186.12 1595.47 1194.53 1603.23C1203.58 1610.99 1213.28 1617.78 1223.63 1623.6C1234.62 1628.77 1245.94 1633.62 1257.58 1638.15L1258.55 1640.09Z" fill="#4F4F4F"/>
<path d="M1840.1 1596.44C1851.09 1596.44 1860.47 1600.64 1868.23 1609.05C1875.99 1616.81 1879.87 1626.51 1879.87 1638.15C1879.87 1649.14 1875.99 1658.84 1868.23 1667.25C1860.47 1675.01 1851.09 1678.89 1840.1 1678.89H1756.68V2006.75C1756.68 2017.74 1752.8 2027.44 1745.04 2035.85C1737.28 2043.61 1727.9 2047.49 1716.91 2047.49C1705.91 2047.49 1696.21 2043.61 1687.81 2035.85C1680.05 2027.44 1676.17 2017.74 1676.17 2006.75V1678.89H1594.69C1583.69 1678.89 1573.99 1675.01 1565.59 1667.25C1557.83 1658.84 1553.95 1649.14 1553.95 1638.15C1553.95 1626.51 1557.83 1616.81 1565.59 1609.05C1573.99 1600.64 1583.69 1596.44 1594.69 1596.44H1676.17V1392.74C1676.17 1381.75 1680.05 1372.37 1687.81 1364.61C1696.21 1356.2 1705.91 1352 1716.91 1352C1727.9 1352 1737.28 1356.2 1745.04 1364.61C1752.8 1372.37 1756.68 1381.75 1756.68 1392.74V1596.44H1840.1Z" fill="#4F4F4F"/>
<path d="M2327.44 2006.75C2327.44 2017.74 2323.56 2027.44 2315.8 2035.85C2308.04 2043.61 2298.66 2047.49 2287.67 2047.49C2279.26 2047.49 2270.85 2043.61 2262.45 2035.85C2254.04 2027.44 2246.93 2017.42 2241.11 2005.78C2216.53 2018.71 2191.96 2028.74 2167.39 2035.85C2142.81 2042.96 2118.24 2046.52 2093.67 2046.52C2053.57 2046.52 2020.59 2037.14 1994.73 2018.39C1969.51 1998.99 1952.37 1971.83 1943.32 1936.91C1940.73 1927.21 1939.44 1917.19 1939.44 1906.84C1939.44 1893.91 1941.05 1881.62 1944.29 1869.98C1948.17 1858.34 1954.31 1847.67 1962.72 1837.97C1973.06 1824.39 1985.67 1813.4 2000.55 1804.99C2015.42 1795.94 2031.26 1789.15 2048.08 1784.62C2065.54 1779.45 2083.64 1776.21 2102.4 1774.92C2121.15 1772.98 2139.9 1772.01 2158.66 1772.01C2167.71 1772.01 2177.73 1772.33 2188.73 1772.98C2200.37 1772.98 2211.36 1773.3 2221.71 1773.95C2223.65 1773.95 2227.53 1774.27 2233.35 1774.92C2239.81 1774.92 2244.02 1774.92 2245.96 1774.92C2242.72 1756.17 2237.87 1739.35 2231.41 1724.48C2225.59 1708.96 2218.47 1698.61 2210.07 1693.44C2192.61 1683.74 2171.91 1678.89 2147.99 1678.89C2125.35 1678.89 2103.37 1683.42 2082.03 1692.47C2061.33 1700.88 2044.52 1710.25 2031.59 1720.6C2028.35 1723.83 2024.47 1726.1 2019.95 1727.39C2015.42 1728.04 2010.89 1728.36 2006.37 1728.36C2000.55 1728.36 1994.73 1727.07 1988.91 1724.48C1983.73 1721.89 1979.21 1718.66 1975.33 1714.78C1968.86 1706.37 1965.63 1697.32 1965.63 1687.62C1965.63 1674.69 1970.48 1664.66 1980.18 1657.55C1998.93 1640.74 2020.27 1627.48 2044.2 1617.78C2068.12 1608.08 2093.34 1601.61 2119.86 1598.38C2123.74 1597.73 2127.94 1597.41 2132.47 1597.41C2137.64 1597.41 2142.17 1597.41 2146.05 1597.41C2163.51 1597.41 2181.61 1600 2200.37 1605.17C2219.12 1609.7 2235.93 1615.52 2250.81 1622.63H2249.84C2267.3 1633.62 2281.2 1647.2 2291.55 1663.37C2301.89 1679.54 2309.65 1695.38 2314.83 1710.9C2320 1726.42 2323.23 1740.32 2324.53 1752.61C2325.82 1764.9 2326.47 1772.33 2326.47 1774.92V1939.82L2327.44 2006.75ZM2245.96 1856.4C2244.66 1856.4 2240.78 1856.4 2234.32 1856.4C2227.85 1855.75 2223 1855.43 2219.77 1855.43C2211.36 1854.78 2202.31 1854.46 2192.61 1854.46C2182.91 1853.81 2173.53 1853.49 2164.48 1853.49C2148.96 1853.49 2132.79 1854.46 2115.98 1856.4C2099.16 1857.69 2083.64 1860.28 2069.42 1864.16C2055.19 1868.04 2043.55 1873.54 2034.5 1880.65C2025.44 1887.76 2020.92 1896.82 2020.92 1907.81C2020.92 1918.16 2022.86 1926.89 2026.74 1934C2031.26 1941.11 2036.76 1946.93 2043.23 1951.46C2050.34 1955.99 2058.1 1959.54 2066.51 1962.13C2075.56 1964.07 2084.61 1965.04 2093.67 1965.04C2104.66 1965.04 2114.04 1964.39 2121.8 1963.1C2129.56 1961.81 2134.73 1960.84 2137.32 1960.19C2138.61 1959.54 2140.23 1959.22 2142.17 1959.22C2164.8 1954.05 2183.23 1945.96 2197.46 1934.97C2211.68 1923.33 2222.03 1912.34 2228.5 1901.99L2245.96 1856.4Z" fill="#4F4F4F"/>
<path d="M2624.53 2047.49C2595.43 2047.49 2568.27 2041.67 2543.05 2030.03C2517.83 2018.39 2495.52 2002.55 2476.12 1982.5C2457.37 1961.81 2442.49 1937.88 2431.5 1910.72C2420.51 1883.56 2415.01 1854.46 2415.01 1823.42C2415.01 1792.38 2420.51 1763.28 2431.5 1736.12C2442.49 1708.31 2457.37 1684.06 2476.12 1663.37C2495.52 1642.68 2517.83 1626.51 2543.05 1614.87C2568.27 1602.58 2595.43 1596.44 2624.53 1596.44C2640.05 1596.44 2654.92 1598.38 2669.15 1602.26C2683.38 1606.14 2697.28 1610.99 2710.86 1616.81C2725.73 1624.57 2733.17 1636.86 2733.17 1653.67C2733.17 1656.9 2732.85 1660.14 2732.2 1663.37C2731.55 1665.96 2730.58 1668.87 2729.29 1672.1C2726.06 1679.21 2720.88 1684.71 2713.77 1688.59C2707.3 1692.47 2700.19 1694.41 2692.43 1694.41C2689.84 1694.41 2686.93 1694.09 2683.7 1693.44C2681.11 1692.79 2678.2 1691.82 2674.97 1690.53C2667.86 1687.3 2659.45 1684.71 2649.75 1682.77C2640.05 1680.18 2631.64 1678.89 2624.53 1678.89C2607.07 1678.89 2590.58 1682.77 2575.06 1690.53C2559.54 1697.64 2545.96 1707.67 2534.32 1720.6C2522.68 1733.53 2513.3 1749.05 2506.19 1767.16C2499.72 1784.62 2496.49 1803.37 2496.49 1823.42C2496.49 1843.47 2499.72 1862.22 2506.19 1879.68C2513.3 1896.49 2522.68 1911.37 2534.32 1924.3C2545.96 1937.23 2559.54 1947.58 2575.06 1955.34C2590.58 1962.45 2607.07 1966.01 2624.53 1966.01C2640.7 1966.01 2658.16 1961.81 2676.91 1953.4C2678.2 1952.11 2680.14 1951.46 2682.73 1951.46C2685.32 1950.81 2688.23 1950.49 2691.46 1950.49C2699.87 1950.49 2707.3 1952.75 2713.77 1957.28C2720.88 1961.16 2726.06 1966.66 2729.29 1973.77C2730.58 1976.36 2731.55 1978.94 2732.2 1981.53C2732.85 1984.12 2733.17 1987.35 2733.17 1991.23C2733.17 1998.34 2731.23 2005.46 2727.35 2012.57C2723.47 2019.68 2717.97 2024.86 2710.86 2028.09C2683.05 2041.02 2654.28 2047.49 2624.53 2047.49Z" fill="#4F4F4F"/>
<path d="M3169.55 1977.65C3176.66 1985.41 3180.22 1995.11 3180.22 2006.75C3180.22 2017.74 3176.66 2027.44 3169.55 2035.85C3160.5 2043.61 3150.8 2047.49 3140.45 2047.49C3128.81 2047.49 3119.11 2043.61 3111.35 2035.85L2904.74 1829.24V2006.75C2904.74 2017.74 2900.54 2027.44 2892.13 2035.85C2884.37 2043.61 2874.67 2047.49 2863.03 2047.49C2852.04 2047.49 2842.34 2043.61 2833.93 2035.85C2826.17 2027.44 2822.29 2017.74 2822.29 2006.75V1392.74C2822.29 1381.75 2826.17 1372.37 2833.93 1364.61C2842.34 1356.2 2852.04 1352 2863.03 1352C2874.67 1352 2884.37 1356.2 2892.13 1364.61C2900.54 1372.37 2904.74 1381.75 2904.74 1392.74V1814.69L3111.35 1609.05C3120.4 1601.29 3130.1 1597.41 3140.45 1597.41C3145.62 1597.41 3150.47 1598.7 3155 1601.29C3159.53 1603.23 3164.38 1605.82 3169.55 1609.05C3172.78 1612.93 3175.37 1617.46 3177.31 1622.63C3179.25 1627.8 3180.22 1632.98 3180.22 1638.15C3180.22 1649.14 3176.66 1658.84 3169.55 1667.25L3013.38 1823.42L3169.55 1977.65Z" fill="#4F4F4F"/>
<path d="M940 1700C940 1733.14 913.137 1760 880 1760C846.863 1760 820 1733.14 820 1700C820 1666.86 846.863 1640 880 1640C896.582 1640 911.593 1646.73 922.453 1657.6C933.295 1668.46 940 1683.44 940 1700Z" fill="#BB6BD9"/>
<path d="M710 1700C710 1893.3 553.3 2050 360 2050C166.7 2050 10 1893.3 10 1700C10 1506.7 166.7 1350 360 1350C553.3 1350 710 1506.7 710 1700ZM99.8308 1700C99.8308 1843.69 216.313 1960.17 360 1960.17C503.687 1960.17 620.169 1843.69 620.169 1700C620.169 1556.31 503.687 1439.83 360 1439.83C216.313 1439.83 99.8308 1556.31 99.8308 1700Z" fill="#4F4F4F"/>
</svg>
